<svg width="26" height="27" viewBox="0 0 26 27" xmlns="http://www.w3.org/2000/svg" fill="#2d3237">
<path d="M13.1948 26.5669L22.5719 17.1774C22.8396 16.9094 22.9865 16.5521 22.9865 16.1712C22.9865 15.7899 22.8394 15.4329 22.5719 15.1648L21.7204 14.3123C21.4531 14.0445 21.0961 13.897 20.7155 13.897C20.3351 13.897 19.9662 14.0445 19.6989 14.3123L14.2165 19.79L14.2165 2.3871C14.2165 1.60246 13.6031 0.982482 12.8193 0.982482L11.6154 0.982482C10.8316 0.982482 10.1563 1.60246 10.1563 2.3871L10.1563 19.8522L4.64335 14.3125C4.37569 14.0447 4.02843 13.8972 3.64783 13.8972C3.26764 13.8972 2.91532 14.0447 2.64787 14.3125L1.79905 15.165C1.53138 15.4331 1.38552 15.7901 1.38552 16.1714C1.38552 16.5523 1.53328 16.9096 1.80095 17.1776L11.1778 26.5671C11.4463 26.8358 11.8048 26.9835 12.1858 26.9825C12.5681 26.9833 12.9267 26.8358 13.1948 26.5669Z"/>
</svg>
