<svg width="96" height="14" viewBox="0 0 96 14" fill="none" xmlns="http://www.w3.org/2000/svg">
<path d="M0.512266 13V0.526H8.93627V2.884H3.32027V5.332H8.30627V7.636H3.32027V10.642H9.35027V13H0.512266ZM19.7983 13C18.9943 11.572 18.1243 10.162 17.1883 8.77C16.2523 7.378 15.2563 6.064 14.2003 4.828V13H11.4283V0.526H13.7143C14.1103 0.922 14.5483 1.408 15.0283 1.984C15.5083 2.56 15.9943 3.178 16.4863 3.838C16.9903 4.486 17.4883 5.164 17.9803 5.872C18.4723 6.568 18.9343 7.24 19.3663 7.888V0.526H22.1563V13H19.7983ZM31.8558 8.806C31.8558 9.418 31.7838 9.994 31.6398 10.534C31.5078 11.074 31.2678 11.548 30.9198 11.956C30.5838 12.352 30.1218 12.67 29.5338 12.91C28.9578 13.138 28.2258 13.252 27.3378 13.252C26.5218 13.252 25.8198 13.156 25.2318 12.964C24.6438 12.76 24.1578 12.526 23.7738 12.262L24.7098 10.084C25.0578 10.288 25.4298 10.468 25.8258 10.624C26.2218 10.78 26.6538 10.858 27.1218 10.858C27.8058 10.858 28.2978 10.69 28.5978 10.354C28.8978 10.018 29.0478 9.454 29.0478 8.662V0.526H31.8558V8.806ZM36.9191 6.754C36.9191 7.366 36.9911 7.918 37.1351 8.41C37.2911 8.902 37.5071 9.328 37.7831 9.688C38.0711 10.036 38.4191 10.306 38.8271 10.498C39.2351 10.69 39.7031 10.786 40.2311 10.786C40.7471 10.786 41.2091 10.69 41.6171 10.498C42.0371 10.306 42.3851 10.036 42.6611 9.688C42.9491 9.328 43.1651 8.902 43.3091 8.41C43.4651 7.918 43.5431 7.366 43.5431 6.754C43.5431 6.142 43.4651 5.59 43.3091 5.098C43.1651 4.594 42.9491 4.168 42.6611 3.82C42.3851 3.46 42.0371 3.184 41.6171 2.992C41.2091 2.8 40.7471 2.704 40.2311 2.704C39.7031 2.704 39.2351 2.806 38.8271 3.01C38.4191 3.202 38.0711 3.478 37.7831 3.838C37.5071 4.186 37.2911 4.612 37.1351 5.116C36.9911 5.608 36.9191 6.154 36.9191 6.754ZM46.4411 6.754C46.4411 7.822 46.2791 8.764 45.9551 9.58C45.6431 10.384 45.2111 11.062 44.6591 11.614C44.1071 12.154 43.4471 12.562 42.6791 12.838C41.9231 13.114 41.1071 13.252 40.2311 13.252C39.3791 13.252 38.5751 13.114 37.8191 12.838C37.0631 12.562 36.4031 12.154 35.8391 11.614C35.2751 11.062 34.8311 10.384 34.5071 9.58C34.1831 8.764 34.0211 7.822 34.0211 6.754C34.0211 5.686 34.1891 4.75 34.5251 3.946C34.8611 3.13 35.3111 2.446 35.8751 1.894C36.4511 1.342 37.1111 0.927999 37.8551 0.651999C38.6111 0.375999 39.4031 0.237999 40.2311 0.237999C41.0831 0.237999 41.8871 0.375999 42.6431 0.651999C43.3991 0.927999 44.0591 1.342 44.6231 1.894C45.1871 2.446 45.6311 3.13 45.9551 3.946C46.2791 4.75 46.4411 5.686 46.4411 6.754ZM52.5452 5.656C53.0492 4.804 53.5292 3.952 53.9852 3.1C54.4412 2.248 54.8612 1.39 55.2452 0.526H58.3412C57.6572 1.87 56.9492 3.172 56.2172 4.432C55.4852 5.692 54.7112 6.958 53.8952 8.23V13H51.0872V8.266C50.2712 6.994 49.4912 5.722 48.7472 4.45C48.0152 3.178 47.3072 1.87 46.6232 0.526H49.8812C50.2652 1.39 50.6792 2.248 51.1232 3.1C51.5672 3.952 52.0412 4.804 52.5452 5.656ZM63.6176 0.381999C65.4776 0.381999 66.9056 0.711999 67.9016 1.372C68.8976 2.02 69.3956 3.088 69.3956 4.576C69.3956 6.076 68.8916 7.162 67.8836 7.834C66.8756 8.494 65.4356 8.824 63.5636 8.824H62.6816V13H59.8736V0.705999C60.4856 0.586 61.1336 0.502 61.8176 0.454C62.5016 0.405999 63.1016 0.381999 63.6176 0.381999ZM63.7976 2.776C63.5936 2.776 63.3896 2.782 63.1856 2.794C62.9936 2.806 62.8256 2.818 62.6816 2.83V6.43H63.5636C64.5356 6.43 65.2676 6.298 65.7596 6.034C66.2516 5.77 66.4976 5.278 66.4976 4.558C66.4976 4.21 66.4316 3.922 66.2996 3.694C66.1796 3.466 65.9996 3.286 65.7596 3.154C65.5316 3.01 65.2496 2.914 64.9136 2.866C64.5776 2.806 64.2056 2.776 63.7976 2.776ZM75.1116 0.381999C76.9836 0.381999 78.4176 0.717999 79.4136 1.39C80.4096 2.05 80.9076 3.082 80.9076 4.486C80.9076 5.362 80.7036 6.076 80.2956 6.628C79.8996 7.168 79.3236 7.594 78.5676 7.906C78.8196 8.218 79.0836 8.578 79.3596 8.986C79.6356 9.382 79.9056 9.802 80.1696 10.246C80.4456 10.678 80.7096 11.134 80.9616 11.614C81.2136 12.082 81.4476 12.544 81.6636 13H78.5136C78.2856 12.592 78.0516 12.178 77.8116 11.758C77.5836 11.338 77.3436 10.93 77.0916 10.534C76.8516 10.138 76.6116 9.766 76.3716 9.418C76.1316 9.058 75.8916 8.734 75.6516 8.446H74.2656V13H71.4576V0.705999C72.0696 0.586 72.6996 0.502 73.3476 0.454C74.0076 0.405999 74.5956 0.381999 75.1116 0.381999ZM75.2736 2.776C75.0696 2.776 74.8836 2.782 74.7156 2.794C74.5596 2.806 74.4096 2.818 74.2656 2.83V6.214H75.0576C76.1136 6.214 76.8696 6.082 77.3256 5.818C77.7816 5.554 78.0096 5.104 78.0096 4.468C78.0096 3.856 77.7756 3.424 77.3076 3.172C76.8516 2.908 76.1736 2.776 75.2736 2.776ZM85.505 6.754C85.505 7.366 85.577 7.918 85.721 8.41C85.877 8.902 86.093 9.328 86.369 9.688C86.657 10.036 87.005 10.306 87.413 10.498C87.821 10.69 88.289 10.786 88.817 10.786C89.333 10.786 89.795 10.69 90.203 10.498C90.623 10.306 90.971 10.036 91.247 9.688C91.535 9.328 91.751 8.902 91.895 8.41C92.051 7.918 92.129 7.366 92.129 6.754C92.129 6.142 92.051 5.59 91.895 5.098C91.751 4.594 91.535 4.168 91.247 3.82C90.971 3.46 90.623 3.184 90.203 2.992C89.795 2.8 89.333 2.704 88.817 2.704C88.289 2.704 87.821 2.806 87.413 3.01C87.005 3.202 86.657 3.478 86.369 3.838C86.093 4.186 85.877 4.612 85.721 5.116C85.577 5.608 85.505 6.154 85.505 6.754ZM95.027 6.754C95.027 7.822 94.865 8.764 94.541 9.58C94.229 10.384 93.797 11.062 93.245 11.614C92.693 12.154 92.033 12.562 91.265 12.838C90.509 13.114 89.693 13.252 88.817 13.252C87.965 13.252 87.161 13.114 86.405 12.838C85.649 12.562 84.989 12.154 84.425 11.614C83.861 11.062 83.417 10.384 83.093 9.58C82.769 8.764 82.607 7.822 82.607 6.754C82.607 5.686 82.775 4.75 83.111 3.946C83.447 3.13 83.897 2.446 84.461 1.894C85.037 1.342 85.697 0.927999 86.441 0.651999C87.197 0.375999 87.989 0.237999 88.817 0.237999C89.669 0.237999 90.473 0.375999 91.229 0.651999C91.985 0.927999 92.645 1.342 93.209 1.894C93.773 2.446 94.217 3.13 94.541 3.946C94.865 4.75 95.027 5.686 95.027 6.754Z" fill="#17171B"/>
</svg>
