<svg width="144" height="21" viewBox="0 0 144 21" fill="none" xmlns="http://www.w3.org/2000/svg">
<path d="M0.768398 19.5V0.789H13.4044V4.326H4.9804V7.998H12.4594V11.454H4.9804V15.963H14.0254V19.5H0.768398ZM29.6974 19.5C28.4914 17.358 27.1864 15.243 25.7824 13.155C24.3784 11.067 22.8844 9.096 21.3004 7.242V19.5H17.1424V0.789H20.5714C21.1654 1.383 21.8224 2.112 22.5424 2.976C23.2624 3.84 23.9914 4.767 24.7294 5.757C25.4854 6.729 26.2324 7.746 26.9704 8.808C27.7084 9.852 28.4014 10.86 29.0494 11.832V0.789H33.2344V19.5H29.6974ZM47.7837 13.209C47.7837 14.127 47.6757 14.991 47.4597 15.801C47.2617 16.611 46.9017 17.322 46.3797 17.934C45.8757 18.528 45.1827 19.005 44.3007 19.365C43.4367 19.707 42.3387 19.878 41.0067 19.878C39.7827 19.878 38.7297 19.734 37.8477 19.446C36.9657 19.14 36.2367 18.789 35.6607 18.393L37.0647 15.126C37.5867 15.432 38.1447 15.702 38.7387 15.936C39.3327 16.17 39.9807 16.287 40.6827 16.287C41.7087 16.287 42.4467 16.035 42.8967 15.531C43.3467 15.027 43.5717 14.181 43.5717 12.993V0.789H47.7837V13.209ZM55.3786 10.131C55.3786 11.049 55.4866 11.877 55.7026 12.615C55.9366 13.353 56.2606 13.992 56.6746 14.532C57.1066 15.054 57.6286 15.459 58.2406 15.747C58.8526 16.035 59.5546 16.179 60.3466 16.179C61.1206 16.179 61.8136 16.035 62.4256 15.747C63.0556 15.459 63.5776 15.054 63.9916 14.532C64.4236 13.992 64.7476 13.353 64.9636 12.615C65.1976 11.877 65.3146 11.049 65.3146 10.131C65.3146 9.213 65.1976 8.385 64.9636 7.647C64.7476 6.891 64.4236 6.252 63.9916 5.73C63.5776 5.19 63.0556 4.776 62.4256 4.488C61.8136 4.2 61.1206 4.056 60.3466 4.056C59.5546 4.056 58.8526 4.209 58.2406 4.515C57.6286 4.803 57.1066 5.217 56.6746 5.757C56.2606 6.279 55.9366 6.918 55.7026 7.674C55.4866 8.412 55.3786 9.231 55.3786 10.131ZM69.6616 10.131C69.6616 11.733 69.4186 13.146 68.9326 14.37C68.4646 15.576 67.8166 16.593 66.9886 17.421C66.1606 18.231 65.1706 18.843 64.0186 19.257C62.8846 19.671 61.6606 19.878 60.3466 19.878C59.0686 19.878 57.8626 19.671 56.7286 19.257C55.5946 18.843 54.6046 18.231 53.7586 17.421C52.9126 16.593 52.2466 15.576 51.7606 14.37C51.2746 13.146 51.0316 11.733 51.0316 10.131C51.0316 8.529 51.2836 7.125 51.7876 5.919C52.2916 4.695 52.9666 3.669 53.8126 2.841C54.6766 2.013 55.6666 1.392 56.7826 0.977998C57.9166 0.563998 59.1046 0.356998 60.3466 0.356998C61.6246 0.356998 62.8306 0.563998 63.9646 0.977998C65.0986 1.392 66.0886 2.013 66.9346 2.841C67.7806 3.669 68.4466 4.695 68.9326 5.919C69.4186 7.125 69.6616 8.529 69.6616 10.131ZM78.8178 8.484C79.5738 7.206 80.2938 5.928 80.9778 4.65C81.6618 3.372 82.2918 2.085 82.8678 0.789H87.5118C86.4858 2.805 85.4238 4.758 84.3258 6.648C83.2278 8.538 82.0668 10.437 80.8428 12.345V19.5H76.6308V12.399C75.4068 10.491 74.2368 8.583 73.1208 6.675C72.0228 4.767 70.9608 2.805 69.9348 0.789H74.8218C75.3978 2.085 76.0188 3.372 76.6848 4.65C77.3508 5.928 78.0618 7.206 78.8178 8.484ZM95.4264 0.572998C98.2164 0.572998 100.358 1.068 101.852 2.058C103.346 3.03 104.093 4.632 104.093 6.864C104.093 9.114 103.337 10.743 101.825 11.751C100.313 12.741 98.1534 13.236 95.3454 13.236H94.0224V19.5H89.8104V1.059C90.7284 0.879 91.7004 0.753 92.7264 0.681C93.7524 0.608998 94.6524 0.572998 95.4264 0.572998ZM95.6964 4.164C95.3904 4.164 95.0844 4.173 94.7784 4.191C94.4904 4.209 94.2384 4.227 94.0224 4.245V9.645H95.3454C96.8034 9.645 97.9014 9.447 98.6394 9.051C99.3774 8.655 99.7464 7.917 99.7464 6.837C99.7464 6.315 99.6474 5.883 99.4494 5.541C99.2694 5.199 98.9994 4.929 98.6394 4.731C98.2974 4.515 97.8744 4.371 97.3704 4.299C96.8664 4.209 96.3084 4.164 95.6964 4.164ZM112.667 0.572998C115.475 0.572998 117.626 1.077 119.12 2.085C120.614 3.075 121.361 4.623 121.361 6.729C121.361 8.043 121.055 9.114 120.443 9.942C119.849 10.752 118.985 11.391 117.851 11.859C118.229 12.327 118.625 12.867 119.039 13.479C119.453 14.073 119.858 14.703 120.254 15.369C120.668 16.017 121.064 16.701 121.442 17.421C121.82 18.123 122.171 18.816 122.495 19.5H117.77C117.428 18.888 117.077 18.267 116.717 17.637C116.375 17.007 116.015 16.395 115.637 15.801C115.277 15.207 114.917 14.649 114.557 14.127C114.197 13.587 113.837 13.101 113.477 12.669H111.398V19.5H107.186V1.059C108.104 0.879 109.049 0.753 110.021 0.681C111.011 0.608998 111.893 0.572998 112.667 0.572998ZM112.91 4.164C112.604 4.164 112.325 4.173 112.073 4.191C111.839 4.209 111.614 4.227 111.398 4.245V9.321H112.586C114.17 9.321 115.304 9.123 115.988 8.727C116.672 8.331 117.014 7.656 117.014 6.702C117.014 5.784 116.663 5.136 115.961 4.758C115.277 4.362 114.26 4.164 112.91 4.164ZM128.257 10.131C128.257 11.049 128.365 11.877 128.581 12.615C128.815 13.353 129.139 13.992 129.553 14.532C129.985 15.054 130.507 15.459 131.119 15.747C131.731 16.035 132.433 16.179 133.225 16.179C133.999 16.179 134.692 16.035 135.304 15.747C135.934 15.459 136.456 15.054 136.87 14.532C137.302 13.992 137.626 13.353 137.842 12.615C138.076 11.877 138.193 11.049 138.193 10.131C138.193 9.213 138.076 8.385 137.842 7.647C137.626 6.891 137.302 6.252 136.87 5.73C136.456 5.19 135.934 4.776 135.304 4.488C134.692 4.2 133.999 4.056 133.225 4.056C132.433 4.056 131.731 4.209 131.119 4.515C130.507 4.803 129.985 5.217 129.553 5.757C129.139 6.279 128.815 6.918 128.581 7.674C128.365 8.412 128.257 9.231 128.257 10.131ZM142.54 10.131C142.54 11.733 142.297 13.146 141.811 14.37C141.343 15.576 140.695 16.593 139.867 17.421C139.039 18.231 138.049 18.843 136.897 19.257C135.763 19.671 134.539 19.878 133.225 19.878C131.947 19.878 130.741 19.671 129.607 19.257C128.473 18.843 127.483 18.231 126.637 17.421C125.791 16.593 125.125 15.576 124.639 14.37C124.153 13.146 123.91 11.733 123.91 10.131C123.91 8.529 124.162 7.125 124.666 5.919C125.17 4.695 125.845 3.669 126.691 2.841C127.555 2.013 128.545 1.392 129.661 0.977998C130.795 0.563998 131.983 0.356998 133.225 0.356998C134.503 0.356998 135.709 0.563998 136.843 0.977998C137.977 1.392 138.967 2.013 139.813 2.841C140.659 3.669 141.325 4.695 141.811 5.919C142.297 7.125 142.54 8.529 142.54 10.131Z" fill="#14D000"/>
</svg>
