<svg width="77" height="33" viewBox="0 0 77 33" fill="none" xmlns="http://www.w3.org/2000/svg">
<path d="M9.23526 25.8037C6.54659 25.8037 4.35498 24.9854 2.66043 23.3488C0.977184 21.7123 0.135563 19.5321 0.135563 16.8082V16.3375C0.135563 14.5103 0.491419 12.8794 1.20312 11.4446C1.91483 9.99863 2.92026 8.88889 4.21942 8.11547C5.52987 7.33083 7.02106 6.93852 8.69301 6.93852C11.2009 6.93852 13.1722 7.72313 14.6069 9.29243C16.0529 10.8617 16.776 13.0868 16.776 15.9675V17.9516H5.10058C5.25874 19.1398 5.73321 20.0925 6.524 20.8099C7.32606 21.5273 8.33715 21.886 9.55722 21.886C11.4438 21.886 12.9181 21.2079 13.98 19.8516L16.3862 22.525C15.6519 23.5562 14.6578 24.3633 13.4038 24.9462C12.1499 25.5178 10.7603 25.8037 9.23526 25.8037ZM8.67606 10.8729C7.70452 10.8729 6.91373 11.198 6.3037 11.8481C5.70494 12.4983 5.32088 13.4287 5.15141 14.6393H11.9635V14.2525C11.9409 13.1765 11.6472 12.347 11.0823 11.7641C10.5175 11.17 9.71538 10.8729 8.67606 10.8729Z" fill="#FFC55A"/>
<path d="M24.7631 7.33079V26.5154C24.7631 28.5219 24.2264 30.08 23.1532 31.1897C22.08 32.3106 20.5323 32.8711 18.5102 32.8711C17.6629 32.8711 16.8552 32.7758 16.087 32.5852V28.7348C16.6744 28.8357 17.1884 28.8862 17.629 28.8862C19.1089 28.8862 19.8489 28.1071 19.8489 26.5491V7.33079L21.0406 7.70072L22.2324 8.07064L23.4977 7.70072L24.7631 7.33079ZM45.0974 16.5953C45.0974 19.3976 44.4536 21.645 43.1659 23.3376C41.8891 25.019 40.1607 25.8597 37.9805 25.8597C36.1278 25.8597 34.6309 25.2207 33.4899 23.9429V32.518H28.5927V7.33079H33.1341L33.3035 9.11308C34.4897 7.70072 36.0374 6.99455 37.9465 6.99455C40.2059 6.99455 41.9625 7.824 43.2165 9.48297C44.4706 11.1419 45.0974 13.4286 45.0974 16.343V16.5953ZM40.2005 16.2422C40.2005 14.5495 39.8954 13.2437 39.2852 12.3245C38.6865 11.4054 37.811 10.9458 36.6589 10.9458C35.1223 10.9458 34.0661 11.5287 33.4899 12.6944V20.143C34.0887 21.3424 35.1562 21.942 36.6925 21.942C39.031 21.942 40.2005 20.0421 40.2005 16.2422ZM58.4506 11.8874C57.784 11.7977 57.1965 11.7529 56.6883 11.7529C54.8356 11.7529 53.6209 12.375 53.045 13.6192V25.5234H48.1478V7.33079H52.7739L52.9095 9.49979C53.892 7.82963 55.2535 6.99455 56.9934 6.99455C57.5356 6.99455 58.0439 7.0674 58.5182 7.21311L58.4506 11.8874ZM59.4505 16.259C59.4505 14.4543 59.8004 12.8457 60.501 11.4334C61.2013 10.021 62.2066 8.92814 63.5174 8.15468C64.8391 7.38126 66.3697 6.99455 68.1096 6.99455C70.5833 6.99455 72.5998 7.74555 74.1589 9.24759C75.7293 10.7496 76.6049 12.7897 76.7856 15.3678L76.8192 16.612C76.8192 19.4032 76.0341 21.645 74.4641 23.3376C72.8937 25.019 70.7869 25.8597 68.1432 25.8597C65.4999 25.8597 63.3873 25.019 61.8057 23.3376C60.2353 21.6562 59.4505 19.3696 59.4505 16.4775V16.259ZM64.3474 16.612C64.3474 18.3383 64.6753 19.661 65.3303 20.5802C65.9857 21.4881 66.9231 21.942 68.1432 21.942C69.3296 21.942 70.2558 21.4937 70.9224 20.5969C71.589 19.689 71.9223 18.243 71.9223 16.259C71.9223 14.5664 71.589 13.2549 70.9224 12.3245C70.2558 11.3942 69.3181 10.929 68.1096 10.929C66.9119 10.929 65.9857 11.3942 65.3303 12.3245C64.6753 13.2437 64.3474 14.6729 64.3474 16.612Z" fill="#4EC8EF"/>
<path d="M22.2324 6.45653C23.9294 6.45653 25.3052 5.09149 25.3052 3.40762C25.3052 1.72375 23.9294 0.358706 22.2324 0.358706C20.5354 0.358706 19.1596 1.72375 19.1596 3.40762C19.1596 5.09149 20.5354 6.45653 22.2324 6.45653Z" fill="#3C55B3"/>
</svg>
