<svg xmlns="http://www.w3.org/2000/svg" viewBox="0 0 467.924 467.924" fill="#14d000"><path d="M426.564 60.543c-52.759-52.76-137.223-54.966-192.632-6.61-25.717-22.479-58.307-34.75-92.785-34.75-37.72 0-73.182 14.689-99.854 41.361-55.059 55.06-55.058 144.647.001 199.706l185.563 185.564a10.003 10.003 0 0014.142 0L426.562 260.25c26.672-26.672 41.36-62.133 41.36-99.853s-14.686-73.182-41.358-99.854zm-14.143 14.142c22.895 22.894 35.503 53.334 35.503 85.711 0 16.393-3.238 32.287-9.401 46.959H328.719c-5.522 0-10 4.477-10 10v3.03c0 12.148 3.355 23.535 9.695 32.915 2.293 3.406 3.292 7.401 2.893 11.533-.801 8.127-7.261 14.676-15.35 15.572-5.078.556-9.936-.984-13.684-4.343a17.502 17.502 0 01-5.814-13.017c0-3.301.932-6.519 2.687-9.297 6.531-10.305 9.983-21.842 9.983-33.363v-3.03c0-5.523-4.478-10-10-10h-55.2v-44.563c5.396.984 10.725 3.094 15.697 6.246a37.366 37.366 0 0019.993 5.787 37.521 37.521 0 0027.911-12.467c7.099-7.92 10.498-18.569 9.328-29.223-1.93-17.433-16.014-31.338-33.509-33.064-8.698-.839-17.45 1.365-24.66 6.219-4.296 2.903-9.312 4.839-14.761 5.723V71.862c22.531-21.101 51.764-32.68 82.782-32.68 32.378 0 62.818 12.609 85.711 35.503zm-356.984 0c22.894-22.894 53.333-35.503 85.71-35.503 31.018 0 60.252 11.578 82.782 32.68v50.703c0 5.523 4.478 10 10 10h3.03c12.148 0 23.535-3.356 32.915-9.695 3.405-2.293 7.401-3.292 11.533-2.894 8.127.802 14.676 7.261 15.571 15.351.558 5.077-.984 9.937-4.342 13.684a17.504 17.504 0 01-13.018 5.814c-3.302 0-6.521-.931-9.297-2.687-10.306-6.531-21.843-9.983-33.363-9.983h-3.03c-5.522 0-10 4.477-10 10v55.2h-44.101c.984-5.39 3.093-10.716 6.235-15.684a37.285 37.285 0 005.796-20.006 37.524 37.524 0 00-12.467-27.911c-7.919-7.098-18.57-10.499-29.223-9.328-17.441 1.93-31.342 16.017-33.053 33.493-.854 8.709 1.353 17.471 6.217 24.676 2.903 4.296 4.839 9.312 5.723 14.761h-99.65c-18.444-44.053-9.773-96.866 26.032-132.671zm-15.343 152.67h99.515c5.522 0 10-4.477 10-10v-3.03c0-12.148-3.355-23.535-9.702-32.926-2.294-3.398-3.292-7.384-2.886-11.53.795-8.123 7.25-14.669 15.34-15.564 5.076-.557 9.936.984 13.684 4.343a17.502 17.502 0 015.814 13.017c0 3.311-.929 6.525-2.691 9.304-6.528 10.32-9.979 21.854-9.979 33.356v3.03c0 5.523 4.478 10 10 10h54.739v44.101c-5.39-.984-10.715-3.093-15.683-6.235a37.279 37.279 0 00-20.007-5.796 37.525 37.525 0 00-27.912 12.467c-7.098 7.92-10.497 18.569-9.327 29.223 1.93 17.441 16.016 31.342 33.493 33.053 8.705.852 17.471-1.353 24.676-6.217 4.295-2.903 9.312-4.838 14.76-5.723V414.6L55.436 246.107a121.374 121.374 0 01-15.342-18.752zm372.327 18.752L243.929 414.6V311.675c0-5.523-4.478-10-10-10H230.9c-12.149 0-23.536 3.356-32.926 9.702-3.398 2.295-7.392 3.292-11.53 2.885-8.123-.795-14.669-7.25-15.563-15.34-.558-5.077.984-9.937 4.342-13.684a17.504 17.504 0 0113.018-5.814c3.312 0 6.524.928 9.304 2.691 10.319 6.528 21.854 9.979 33.356 9.979h3.029c5.522 0 10-4.477 10-10v-54.74h44.563c-.984 5.397-3.095 10.725-6.246 15.698a37.368 37.368 0 00-5.787 19.992 37.524 37.524 0 0012.467 27.911c6.894 6.178 15.854 9.555 25.086 9.555 1.374 0 2.757-.075 4.137-.227 17.434-1.929 31.338-16.013 33.063-33.507.841-8.698-1.363-17.451-6.218-24.661-2.903-4.296-4.839-9.312-5.723-14.761h88.521a122.376 122.376 0 01-15.372 18.753z"/></svg>
