<svg height="512" viewBox="0 0 510 510" width="512" xmlns="http://www.w3.org/2000/svg" fill="#14d000"><path d="M255 375.31c81.862-47.401 32.184-18.631 242.56-140.48l-90.51-66c-8.7 9.65-21.09 15.93-34.92 16.61l.01 63.19c0 8.56-7.245 15.722-16.43 14.94-6.3 0-33.11 0-65.27.01-8.277 0-15-6.726-15-15v-15.15c0-11.27-9.17-20.43-20.44-20.43s-20.44 9.16-20.44 20.43v15.16c0 8.28-6.71 15-15 15-31.836 0-54.289.01-66.67.01-8.28 0-14.99-6.72-15-15l-.01-63.15c-13.84-.67-26.23-6.95-34.94-16.61l-90.5 65.99C222.813 356.678 173.137 327.909 255 375.31zM0 262.29v229.77l158.54-137.94zM351.46 354.12L510 492.06V262.29z"/><path d="M324.01 370.01l-61.49 35.61c-4.65 2.7-10.39 2.7-15.04 0l-61.49-35.61L25.09 510h459.82l-160.9-139.99zM140.37 155.51h12.51c8.29 0 15 6.71 15 14.99l.009 58.091a5 5 0 005 4.999h31.671v-.16c0-27.81 22.63-50.43 50.44-50.43s50.44 22.62 50.44 50.43v.14h31.699a5 5 0 005-5.001l-.009-58.059c-.02-8.232 6.676-15 15-15h12.49c11.624 0 20.931-9.719 20.42-21.354-.484-11.011-9.904-19.526-20.926-19.526H357.12c-8.358 0-15-6.777-15-15 0-18.483.002-9.924-.009-44.056a5.01 5.01 0 00-5.007-5.003c-31.819.001-35.24.01-46.665.01-8.156 0-14.915-6.554-15-14.85V20.942c0-11.068-8.589-20.508-19.65-20.927-11.628-.441-21.23 8.893-21.23 20.425v15.29c-.08 8.23-6.76 14.86-15 14.86-23.537 0-35.971.008-46.703.01a5.002 5.002 0 00-4.996 5.007c.01 34.201.009 25.283.009 44.024 0 7.54-5.626 15-16.05 15h-10.943c-10.992 0-20.398 8.467-20.924 19.446-.555 11.637 8.729 21.433 20.418 21.433z"/></svg>
