<svg xmlns="http://www.w3.org/2000/svg" width="512" height="512" viewBox="0 0 60 60"><path d="M3 60h5a2.985 2.985 0 002.22-1H35.3a7.985 7.985 0 004.159-1.167L58.2 46.424a3.745 3.745 0 001.728-2.486 3.682 3.682 0 00-.626-2.873.98.98 0 00-.058-.085 3.733 3.733 0 00-4.175-1.3l-15.49 5.163 19.128-19.136a1 1 0 000-1.414l-8-8a3.884 3.884 0 00-5.467.059l-.095.094a2.374 2.374 0 00-.643 1.986 4.923 4.923 0 01-2.35 4.817 4.692 4.692 0 01-4.856.051 4.534 4.534 0 01-2.196-3.386 4.886 4.886 0 015.493-5.4 2.307 2.307 0 001.938-.634l.112-.111a3.887 3.887 0 00.06-5.474l-8-8a1 1 0 00-1.414 0l-8.25 8.241a1.947 1.947 0 01-1.35.581 1.643 1.643 0 01-1.333-.556l-.056-.056a.319.319 0 01-.043-.239 6.521 6.521 0 00-7.21-7.607A7 7 0 009.9 3.928a6.72 6.72 0 00-.13 6.948 6.55 6.55 0 006.741 3.13.336.336 0 01.269.051l.08.08c.341.343.528.81.517 1.294a1.945 1.945 0 01-.577 1.352l-8.25 8.239a1 1 0 000 1.415l11.287 11.284a8.155 8.155 0 01-.712-.5A10.165 10.165 0 0012.8 35h-1.984A3 3 0 008 33H3a3 3 0 00-3 3v21a3 3 0 003 3zm7.675-34.27l7.542-7.53a3.931 3.931 0 001.163-2.739 3.755 3.755 0 00-1.1-2.735l-.079-.079a2.268 2.268 0 00-2-.612 4.575 4.575 0 01-4.7-2.184A4.7 4.7 0 0111.6 5a5.006 5.006 0 013.673-2.349 4.522 4.522 0 015.007 5.302 2.3 2.3 0 00.63 1.989l.073.065a3.759 3.759 0 002.681 1.107h.061a3.937 3.937 0 002.732-1.166L34 2.414 41.29 9.7c.71.749.686 1.93-.055 2.648l-.113.111a.345.345 0 01-.264.067 6.886 6.886 0 00-7.74 7.62A6.584 6.584 0 0036.247 25a6.717 6.717 0 006.954-.055 6.9 6.9 0 003.282-6.765.41.41 0 01.07-.321l.094-.094a1.882 1.882 0 012.646-.06L56.586 25 35.6 46h-.557a4.6 4.6 0 00-.372-3.938l-.09-.149A6.033 6.033 0 0029.432 39H24.2c-.09 0-.179-.009-.269-.012L10.675 25.73zm7.2 13.051A10.167 10.167 0 0023.5 40.97c.233.016.466.03.7.03h5.231a4.019 4.019 0 013.429 1.941l.09.149c.546.91.486 2.06-.15 2.91h-6.075a9.966 9.966 0 00-5.547 1.68l-.733.488a1 1 0 001.11 1.664l.732-.488A7.974 7.974 0 0126.725 48h8.888c.124 0 .245-.021.368-.03.017 0 .033.01.049.01a.961.961 0 00.119-.023 4.993 4.993 0 001.046-.213l18.511-6.171a1.725 1.725 0 011.888.527c.017.029.037.057.057.085a1.739 1.739 0 01-.486 2.53L38.42 56.125A6 6 0 0135.3 57H11V37h1.8a8.152 8.152 0 015.075 1.781zM2 36a1 1 0 011-1h5a1 1 0 011 1v21a1 1 0 01-1 1H3a1 1 0 01-1-1V36z" fill="#14d000" fill-rule="nonzero"/></svg>
