<svg height="512pt" viewBox="0 -16 512.112 512" width="512pt" xmlns="http://www.w3.org/2000/svg" fill="#14d000"><path d="M424 480.055H40c-22.055 0-40-17.942-40-40v-288c0-22.055 17.945-40 40-40h384c22.055 0 40 17.945 40 40v288c0 22.058-17.945 40-40 40zm-384-352c-13.23 0-24 10.77-24 24v288c0 13.234 10.77 24 24 24h384c13.23 0 24-10.766 24-24v-288c0-13.23-10.77-24-24-24zm0 0M48 104.055a7.963 7.963 0 01-5.383-2.086c-3.265-2.969-3.504-8.031-.527-11.297C63.793 66.816 92.383 64.055 112 64.055c4.426 0 8 3.578 8 8 0 4.425-3.574 8-8 8-16.586 0-40.648 2.218-58.09 21.386a7.95 7.95 0 01-5.91 2.614zm0 0M504 112.055a7.99 7.99 0 01-8-8c0-13.23-10.77-24-24-24a7.99 7.99 0 01-8-8c0-4.422 3.574-8 8-8 22.055 0 40 17.945 40 40 0 4.425-3.574 8-8 8zm0 0"/><path d="M98.848 304.055H8a7.99 7.99 0 01-8-8c0-4.422 3.574-8 8-8h90.84c4.426 0 8 3.578 8 8 0 4.425-3.574 8-7.992 8zm0 0"/><path d="M120 360.055c-22.055 0-40-17.942-40-40a39.996 39.996 0 0113.55-30c3.313-2.918 8.372-2.614 11.29.715 2.922 3.308 2.601 8.367-.711 11.285a24.016 24.016 0 00-8.137 18c0 13.234 10.77 24 24 24s24-10.766 24-24c0-6.887-2.96-13.453-8.137-18.008-3.312-2.918-3.632-7.977-.71-11.285 2.917-3.32 7.984-3.633 11.289-.715a40.013 40.013 0 0113.55 30.008c.016 22.058-17.93 40-39.984 40zm0 0"/><path d="M232 304.055h-90.84a7.99 7.99 0 01-8-8c0-4.422 3.574-8 8-8H232c4.426 0 8 3.578 8 8 0 4.425-3.574 8-8 8zm0 0M456 304.055h-90.84a7.99 7.99 0 01-8-8c0-4.422 3.574-8 8-8H456c4.426 0 8 3.578 8 8 0 4.425-3.574 8-8 8zm0 0"/><path d="M322.848 304.063a7.958 7.958 0 01-5.29-2 40.007 40.007 0 01-13.55-30.008c0-22.055 17.945-40 40-40 22.054 0 40 17.945 40 40a39.99 39.99 0 01-13.551 30c-3.312 2.922-8.367 2.617-11.289-.711-2.922-3.313-2.602-8.367.71-11.29a24.004 24.004 0 008.138-18c0-13.23-10.77-24-24-24s-24 10.77-24 24a23.98 23.98 0 008.136 18.009c3.313 2.921 3.633 7.976.711 11.289a8.021 8.021 0 01-6.015 2.71zm0 0"/><path d="M322.848 304.055H232a7.99 7.99 0 01-8-8c0-4.422 3.574-8 8-8h90.84c4.426 0 8 3.578 8 8 0 4.425-3.574 8-7.992 8zm0 0M232 480.055a7.99 7.99 0 01-8-8v-66.84c0-4.422 3.574-8 8-8s8 3.578 8 8v66.84c0 4.425-3.574 8-8 8zm0 0"/><path d="M256 424.055a40.04 40.04 0 01-30-13.543 8.008 8.008 0 01.703-11.297c3.313-2.918 8.36-2.598 11.297.707a24.039 24.039 0 0018 8.14c13.23 0 24-10.765 24-24 0-13.23-10.77-24-24-24-6.887 0-13.45 2.961-17.992 8.137a8.013 8.013 0 01-11.297.723c-3.313-2.922-3.633-7.977-.719-11.297A39.972 39.972 0 01256 344.055c22.055 0 40 17.945 40 40 0 22.058-17.945 40-40 40zm0 0"/><path d="M232 370.895a7.99 7.99 0 01-8-8v-66.84c0-4.422 3.574-8 8-8s8 3.578 8 8v66.84c0 4.425-3.574 8-8 8zm0 0M232 194.895a7.99 7.99 0 01-8-8v-66.84c0-4.422 3.574-8 8-8s8 3.578 8 8v66.84c0 4.425-3.574 8-8 8zm0 0"/><path d="M208 248.055c-22.055 0-40-17.942-40-40 0-22.055 17.945-40 40-40a40.044 40.044 0 0130 13.547c2.922 3.308 2.61 8.367-.703 11.293-3.305 2.921-8.36 2.609-11.297-.704a24.022 24.022 0 00-18-8.136c-13.23 0-24 10.77-24 24 0 13.234 10.77 24 24 24 6.887 0 13.45-2.957 17.992-8.133 2.93-3.328 7.985-3.633 11.297-.723 3.313 2.922 3.633 7.977.719 11.297A39.976 39.976 0 01208 248.055zm0 0"/><path d="M232 304.055a7.99 7.99 0 01-8-8v-66.84c0-4.422 3.574-8 8-8s8 3.578 8 8v66.84c0 4.425-3.574 8-8 8zm0 0M168 104.055a7.99 7.99 0 01-8-8v-72c0-4.422 3.574-8 8-8s8 3.578 8 8v72c0 4.425-3.574 8-8 8zm0 0"/><path d="M168 32.055a7.99 7.99 0 01-8-8c0-13.23 10.77-24 24-24 4.426 0 8 3.578 8 8 0 4.425-3.574 8-8 8-4.414 0-8 3.586-8 8 0 4.425-3.574 8-8 8zm0 0M344 104.055a7.99 7.99 0 01-8-8v-72c0-4.422 3.574-8 8-8s8 3.578 8 8v72c0 4.425-3.574 8-8 8zm0 0"/><path d="M344 32.055a7.99 7.99 0 01-8-8c0-4.414-3.586-8-8-8a7.99 7.99 0 01-8-8c0-4.422 3.574-8 8-8 13.23 0 24 10.77 24 24 0 4.425-3.574 8-8 8zm0 0"/><path d="M328 16.055H184a7.99 7.99 0 01-8-8c0-4.422 3.574-8 8-8h144c4.426 0 8 3.578 8 8 0 4.425-3.574 8-8 8zm0 0M344 56.055H168a7.99 7.99 0 01-8-8c0-4.422 3.574-8 8-8h176c4.426 0 8 3.578 8 8 0 4.425-3.574 8-8 8zm0 0"/><path d="M200 104.055a7.99 7.99 0 01-8-8v-48c0-4.422 3.574-8 8-8s8 3.578 8 8v48c0 4.425-3.574 8-8 8zm0 0M312 104.055a7.99 7.99 0 01-8-8v-48c0-4.422 3.574-8 8-8s8 3.578 8 8v48c0 4.425-3.574 8-8 8zm0 0M18.785 136.168a7.965 7.965 0 01-5.387-2.09c-3.261-2.965-3.503-8.031-.527-11.293L42.09 90.672c2.972-3.274 8.039-3.504 11.293-.527 3.265 2.968 3.504 8.03.527 11.296l-29.215 32.11a7.98 7.98 0 01-5.91 2.617zm0 0M480.113 442.84a7.966 7.966 0 01-5.914-2.617c-2.976-3.262-2.734-8.328.528-11.293 19.168-17.442 21.386-41.504 21.386-58.09V104.055c0-4.422 3.574-8 8-8 4.422 0 8 3.578 8 8V370.84c0 19.617-2.761 48.207-26.617 69.914a7.97 7.97 0 01-5.383 2.086zm0 0"/><path d="M448 472.055a7.962 7.962 0 01-5.91-2.614c-2.977-3.265-2.738-8.328.527-11.296l32.11-29.215c3.265-2.977 8.328-2.739 11.296.527 2.977 3.262 2.739 8.328-.527 11.297l-32.113 29.215a7.949 7.949 0 01-5.383 2.086zm0 0M424 128.055a7.967 7.967 0 01-5.656-2.344 7.99 7.99 0 010-11.313l48-48a7.997 7.997 0 0111.312 0 7.99 7.99 0 010 11.313l-48 48a7.967 7.967 0 01-5.656 2.344zm0 0M456 160.055a7.967 7.967 0 01-5.656-2.344 7.99 7.99 0 010-11.313l48-48a7.997 7.997 0 0111.312 0 7.99 7.99 0 010 11.313l-48 48a7.967 7.967 0 01-5.656 2.344zm0 0M456 304.055a7.967 7.967 0 01-5.656-2.344 7.99 7.99 0 010-11.313l48-48a7.997 7.997 0 0111.312 0 7.99 7.99 0 010 11.313l-48 48a7.967 7.967 0 01-5.656 2.344zm0 0M168 80.055h-56a7.99 7.99 0 01-8-8c0-4.422 3.574-8 8-8h56c4.426 0 8 3.578 8 8 0 4.425-3.574 8-8 8zm0 0M312 80.055H200a7.99 7.99 0 01-8-8c0-4.422 3.574-8 8-8h112c4.426 0 8 3.578 8 8 0 4.425-3.574 8-8 8zm0 0"/><path d="M472 80.055H344a7.99 7.99 0 01-8-8c0-4.422 3.574-8 8-8h128c4.426 0 8 3.578 8 8 0 4.425-3.574 8-8 8zm0 0M232 128.055a7.967 7.967 0 01-5.656-2.344 7.99 7.99 0 010-11.313l48-48a7.997 7.997 0 0111.312 0 7.99 7.99 0 010 11.313l-48 48a7.967 7.967 0 01-5.656 2.344zm0 0"/></svg>
